<?xml version="1.0" encoding="UTF-8"?>
<svg height="16px" viewBox="0 0 16 16" width="16px" xmlns="http://www.w3.org/2000/svg">
    <path d="m 1 2 v 2 s 0.246094 0.015625 0.5 0.277344 c 0.019531 0.039062 0.335938 1.089844 0.554688 2.210937 c 0.21875 1.125 0.4375 2.4375 0.664062 3.542969 c 0.226562 1.113281 0.445312 1.941406 0.730469 2.574219 c 0.144531 0.316406 0.28125 0.597656 0.628906 0.871093 c 0.175781 0.136719 0.441406 0.265626 0.742187 0.277344 c 0.304688 0.007813 0.597657 -0.109375 0.785157 -0.246094 c 0.660156 -0.472656 0.761719 -0.96875 1 -1.519531 s 0.457031 -1.152343 0.65625 -1.601562 c 0.144531 -0.324219 0.25 -0.460938 0.347656 -0.605469 c 0.179687 0.1875 0.402344 0.460938 0.664063 0.738281 c 0.550781 0.570313 1.28125 1.054688 2.15625 0.957031 c 0.792968 -0.085937 1.289062 -0.464843 1.648437 -0.640624 c 0.339844 -0.160157 0.613281 -0.222657 0.851563 -0.210938 c 0.277343 0.011719 0.664062 0.113281 1.148437 0.21875 c 0.59375 0.164062 0.921875 0.15625 0.921875 0.15625 v -2 s 0.277344 0.039062 -0.488281 -0.109375 c -0.398438 -0.085937 -0.890625 -0.242187 -1.5 -0.265625 c -0.644531 -0.027344 -1.253907 0.148438 -1.800781 0.410156 c -0.519532 0.253906 -0.910157 0.445313 -1 0.453125 c -0.007813 0 -0.160157 -0.003906 -0.492188 -0.351562 c -0.175781 -0.1875 -0.398438 -0.460938 -0.660156 -0.734375 c -0.261719 -0.277344 -0.550782 -0.597656 -1.113282 -0.757813 c -0.640624 -0.183593 -1.304687 0.164063 -1.664062 0.542969 c -0.355469 0.378906 -0.601562 0.832031 -0.847656 1.386719 c -0.167969 0.378906 -0.3125 0.753906 -0.460938 1.125 c -0.101562 -0.363281 -0.1875 -0.550781 -0.296875 -1.070313 c -0.214843 -1.046875 -0.433593 -2.359375 -0.65625 -3.519531 c -0.226562 -1.160156 -0.316406 -2.070313 -0.769531 -2.804687 c -0.226562 -0.574219 -1.378906 -1.164063 -2.25 -1.304688 z m 0 0" fill-rule="evenodd"/>
    <path d="m 3 0 c -1.644531 0 -3 1.355469 -3 3 v 10 c 0 1.644531 1.355469 3 3 3 h 10 c 1.644531 0 3 -1.355469 3 -3 v -10 c 0 -1.644531 -1.355469 -3 -3 -3 z m 0 2 h 10 c 0.570312 0 1 0.429688 1 1 v 10 c 0 0.570312 -0.429688 1 -1 1 h -10 c -0.570312 0 -1 -0.429688 -1 -1 v -10 c 0 -0.570312 0.429688 -1 1 -1 z m 0 0"/>
</svg>
